REM DIRINDEX 1\2,1\3
REM DIRNAME folder01,folder02,folder03
TITLE ""
FILE "2000 phrasesTrack24.mp3" MP3
  TRACK 01 AUDIO
    TITLE "2:cjc143_0894"
    INDEX 01 00:00:00
  TRACK 02 AUDIO
    TITLE "0:"
    INDEX 01 00:00:62
  TRACK 03 AUDIO
    TITLE "2:cjc143_0895"
    INDEX 01 00:01:28
  TRACK 04 AUDIO
    TITLE "0:"
    INDEX 01 00:02:42
  TRACK 05 AUDIO
    TITLE "2:cjc143_0896"
    INDEX 01 00:02:47
  TRACK 06 AUDIO
    TITLE "0:"
    INDEX 01 00:03:74
  TRACK 07 AUDIO
    TITLE "2:cjc143_0897"
    INDEX 01 00:04:07
  TRACK 08 AUDIO
    TITLE "0:"
    INDEX 01 00:05:46
  TRACK 09 AUDIO
    TITLE "2:cjc143_0898"
    INDEX 01 00:05:52
  TRACK 10 AUDIO
    TITLE "0:"
    INDEX 01 00:07:39
  TRACK 11 AUDIO
    TITLE "2:cjc143_0899"
    INDEX 01 00:07:52
  TRACK 12 AUDIO
    TITLE "0:"
    INDEX 01 00:09:16
  TRACK 13 AUDIO
    TITLE "2:cjc143_0900"
    INDEX 01 00:09:24
  TRACK 14 AUDIO
    TITLE "0:"
    INDEX 01 00:11:27
  TRACK 15 AUDIO
    TITLE "2:cjc143_0901"
    INDEX 01 00:11:33
  TRACK 16 AUDIO
    TITLE "0:"
    INDEX 01 00:12:71
  TRACK 17 AUDIO
    TITLE "2:cjc143_0902"
    INDEX 01 00:13:02
  TRACK 18 AUDIO
    TITLE "0:"
    INDEX 01 00:14:45
  TRACK 19 AUDIO
    TITLE "2:cjc143_0903"
    INDEX 01 00:14:53
  TRACK 20 AUDIO
    TITLE "0:"
    INDEX 01 00:16:55
  TRACK 21 AUDIO
    TITLE "2:cjc143_0904"
    INDEX 01 00:16:61
  TRACK 22 AUDIO
    TITLE "0:"
    INDEX 01 00:18:13
  TRACK 23 AUDIO
    TITLE "2:cjc143_0905"
    INDEX 01 00:18:19
  TRACK 24 AUDIO
    TITLE "0:"
    INDEX 01 00:19:63
  TRACK 25 AUDIO
    TITLE "2:cjc143_0906"
    INDEX 01 00:19:71
  TRACK 26 AUDIO
    TITLE "0:"
    INDEX 01 00:21:08
  TRACK 27 AUDIO
    TITLE "2:cjc143_0907"
    INDEX 01 00:21:17
  TRACK 28 AUDIO
    TITLE "0:"
    INDEX 01 00:22:32
  TRACK 29 AUDIO
    TITLE "2:cjc143_0908"
    INDEX 01 00:22:36
  TRACK 30 AUDIO
    TITLE "0:"
    INDEX 01 00:24:04
  TRACK 31 AUDIO
    TITLE "2:cjc143_0909"
    INDEX 01 00:24:10
  TRACK 32 AUDIO
    TITLE "0:"
    INDEX 01 00:25:25
  TRACK 33 AUDIO
    TITLE "2:cjc143_0910"
    INDEX 01 00:25:31
  TRACK 34 AUDIO
    TITLE "0:"
    INDEX 01 00:27:18
  TRACK 35 AUDIO
    TITLE "2:cjc143_0911"
    INDEX 01 00:27:63
  TRACK 36 AUDIO
    TITLE "0:"
    INDEX 01 00:29:21
  TRACK 37 AUDIO
    TITLE "2:cjc143_0912"
    INDEX 01 00:29:33
  TRACK 38 AUDIO
    TITLE "0:"
    INDEX 01 00:30:67
  TRACK 39 AUDIO
    TITLE "2:cjc143_0913"
    INDEX 01 00:30:73
  TRACK 40 AUDIO
    TITLE "0:"
    INDEX 01 00:32:29
  TRACK 41 AUDIO
    TITLE "2:cjc143_0914"
    INDEX 01 00:32:35
  TRACK 42 AUDIO
    TITLE "0:"
    INDEX 01 00:33:73
  TRACK 43 AUDIO
    TITLE "2:cjc143_0915"
    INDEX 01 00:34:10
  TRACK 44 AUDIO
    TITLE "0:"
    INDEX 01 00:35:64
  TRACK 45 AUDIO
    TITLE "2:cjc143_0916"
    INDEX 01 00:35:74
  TRACK 46 AUDIO
    TITLE "0:"
    INDEX 01 00:37:34
  TRACK 47 AUDIO
    TITLE "2:cjc143_0917"
    INDEX 01 00:37:44
  TRACK 48 AUDIO
    TITLE "0:"
    INDEX 01 00:39:35
  TRACK 49 AUDIO
    TITLE "2:cjc143_0918"
    INDEX 01 00:40:03
  TRACK 50 AUDIO
    TITLE "0:"
    INDEX 01 00:41:49
  TRACK 51 AUDIO
    TITLE "2:cjc143_0919"
    INDEX 01 00:41:57
  TRACK 52 AUDIO
    TITLE "0:"
    INDEX 01 00:43:25
  TRACK 53 AUDIO
    TITLE "2:cjc143_0920"
    INDEX 01 00:43:50
  TRACK 54 AUDIO
    TITLE "0:"
    INDEX 01 00:45:24
  TRACK 55 AUDIO
    TITLE "2:cjc143_0921"
    INDEX 01 00:45:32
  TRACK 56 AUDIO
    TITLE "0:"
    INDEX 01 00:47:09
  TRACK 57 AUDIO
    TITLE "2:cjc143_0922"
    INDEX 01 00:47:50
  TRACK 58 AUDIO
    TITLE "0:"
    INDEX 01 00:49:49
  TRACK 59 AUDIO
    TITLE "2:cjc143_0923"
    INDEX 01 00:49:53
  TRACK 60 AUDIO
    TITLE "0:"
    INDEX 01 00:51:20
  TRACK 61 AUDIO
    TITLE "2:cjc143_0924"
    INDEX 01 00:51:26
  TRACK 62 AUDIO
    TITLE "0:"
    INDEX 01 00:53:06
  TRACK 63 AUDIO
    TITLE "2:cjc143_0925"
    INDEX 01 00:53:23
  TRACK 64 AUDIO
    TITLE "0:"
    INDEX 01 00:55:10
